<svg xmlns="http://www.w3.org/2000/svg" width="834" height="203" viewBox="0 0 834 203" font-family="SFMono-Regular,Menlo,Consolas,monospace" font-size="13">
<rect width="834" height="203" rx="10" fill="#0f1117"/>
<rect width="834" height="34" rx="10" fill="#1b1e28"/><rect y="20" width="834" height="14" fill="#1b1e28"/>
<circle cx="20" cy="17" r="6" fill="#ff5f57"/><circle cx="40" cy="17" r="6" fill="#febc2e"/><circle cx="60" cy="17" r="6" fill="#28c840"/>
<text x="417.0" y="22" fill="#8b93a7" text-anchor="middle" font-size="12">macsweep clean</text>
<text x="18.0" y="52" fill="#d6deeb" xml:space="preserve">  </text>
<text x="34.8" y="52" fill="#d6deeb" opacity="0.55" xml:space="preserve">&#x27;a&#x27; selects every SAFE item at once; REVIEW items are always one by one.</text>
<text x="18.0" y="90" fill="#d6deeb" xml:space="preserve">  </text>
<rect x="34.8" y="76" width="109.2" height="19" fill="#5be49b"/>
<text x="34.8" y="90" fill="#1f2430" xml:space="preserve"> SAFE        </text>
<text x="18.0" y="109" fill="#d6deeb" opacity="0.55" xml:space="preserve">────────────────────────────────────────────────────────────────────────────────</text>
<text x="18.0" y="128" fill="#d6deeb" xml:space="preserve">  </text>
<text x="34.8" y="128" fill="#d6deeb" opacity="0.55" xml:space="preserve">  1</text>
<text x="60.0" y="128" fill="#d6deeb" xml:space="preserve">   </text>
<text x="85.2" y="128" fill="#d6deeb" font-weight="bold" xml:space="preserve">  3.9 GB</text>
<text x="152.4" y="128" fill="#d6deeb" xml:space="preserve">  CoreSimulator dyld cache (system)</text>
<text x="18.0" y="147" fill="#d6deeb" xml:space="preserve">          </text>
<text x="102.0" y="147" fill="#d6deeb" opacity="0.55" xml:space="preserve">asks for password (sudo); entries of the active runtime are protected and are skipped</text>
<text x="18.0" y="166" fill="#d6deeb" xml:space="preserve">      </text>
<text x="68.4" y="166" fill="#d6deeb" font-weight="bold" xml:space="preserve">Delete?</text>
<text x="127.2" y="166" fill="#d6deeb" xml:space="preserve"> </text>
<text x="135.6" y="166" fill="#d6deeb" opacity="0.55" xml:space="preserve">[y]es  [n]o  [a]ll safe  [r]est no  [q]uit</text>
<text x="488.4" y="166" fill="#d6deeb" xml:space="preserve"> </text>
</svg>